<svg xmlns="http://www.w3.org/2000/svg" version="1.0" width="1414.000000pt" height="471.000000pt" viewBox="0 0 1414.000000 471.000000" preserveAspectRatio="xMidYMid meet">

<g transform="translate(0.000000,471.000000) scale(0.100000,-0.100000)" fill="#C70808" stroke="none">
<path d="M6635 4064 c-40 -7 -110 -33 -162 -59 -209 -103 -327 -292 -362 -580 -14 -115 -15 -1783 -1 -1940 32 -367 200 -603 485 -680 37 -11 118 -19 210 -22 130 -5 162 -2 239 16 122 29 205 71 281 142 105 98 161 198 207 368 18 67 21 112 25 384 l5 307 -171 0 -171 0 0 -249 c0 -282 -11 -368 -60 -467 -60 -123 -157 -176 -320 -176 -60 0 -111 6 -138 16 -132 48 -205 155 -232 341 -6 42 -10 432 -10 987 0 787 2 927 15 990 31 144 86 228 183 275 48 23 72 28 158 31 116 5 182 -11 247 -59 118 -85 157 -222 157 -546 l0 -163 171 0 171 0 -5 243 c-6 282 -18 352 -94 507 -87 181 -246 300 -444 335 -103 18 -290 18 -384 -1z"/>
<path d="M8570 4046 c-216 -50 -347 -151 -439 -339 -57 -117 -77 -191 -92 -332 -14 -140 -47 -1808 -38 -1930 10 -120 47 -254 97 -350 54 -101 166 -212 262 -258 125 -61 182 -72 375 -72 147 0 181 3 250 23 279 80 449 311 489 662 4 30 15 463 26 962 21 952 20 997 -21 1147 -35 129 -84 217 -174 307 -86 87 -168 135 -290 169 -79 23 -366 30 -445 11z m378 -345 c68 -31 144 -113 171 -187 12 -30 25 -90 30 -132 13 -116 -25 -1843 -43 -1954 -24 -150 -87 -252 -190 -306 -47 -25 -60 -27 -176 -27 -109 0 -131 3 -175 23 -115 53 -182 158 -205 320 -15 107 25 1887 45 1981 19 94 47 153 96 206 76 82 143 106 289 102 84 -3 116 -8 158 -26z"/>
<path d="M5255 4033 l-30 -4 3 -147 c6 -364 52 -3030 52 -3054 l0 -28 180 0 180 0 0 58 c0 188 -51 2995 -56 3080 l-6 102 -146 -2 c-81 0 -160 -3 -177 -5z"/>
<path d="M4508 4021 c-75 -3 -139 -9 -142 -12 -3 -3 10 -459 29 -1015 47 -1394 45 -1316 30 -1274 -283 791 -773 2153 -792 2202 l-26 67 -196 -5 c-108 -3 -211 -7 -229 -10 l-32 -5 5 -107 c7 -128 105 -3000 105 -3072 l0 -50 159 0 c88 0 162 3 164 8 2 4 -15 567 -39 1252 -24 685 -43 1265 -41 1290 2 52 -49 192 491 -1330 197 -553 372 -1045 389 -1094 l32 -90 165 3 c167 2 210 7 210 21 0 98 -112 3215 -116 3221 -3 5 -11 8 -17 7 -7 -1 -74 -4 -149 -7z"/>
<path d="M9936 3978 c-3 -13 -7 -85 -10 -160 l-4 -137 31 -6 c29 -5 460 -25 532 -25 l31 0 -4 -127 c-2 -71 -30 -724 -62 -1453 -31 -729 -56 -1326 -56 -1327 4 -6 349 -23 354 -18 5 4 129 2722 131 2879 l1 29 113 -6 c61 -4 196 -10 298 -13 l186 -7 8 157 c4 87 4 160 0 164 -5 6 -1343 70 -1492 71 -47 1 -53 -2 -57 -21z"/>
<path d="M2327 3932 l-77 -3 6 -92 c3 -51 41 -777 84 -1615 42 -837 79 -1524 81 -1526 7 -6 337 6 347 13 9 5 -132 2873 -154 3149 l-7 83 -101 -3 c-56 -2 -136 -4 -179 -6z"/>
<path d="M11840 3898 c0 -26 389 -3251 393 -3254 10 -8 519 -36 526 -28 7 7 757 2921 809 3141 l10 42 -52 6 c-28 3 -102 7 -165 8 l-114 2 -258 -1010 c-374 -1466 -442 -1726 -449 -1718 -4 5 -78 607 -164 1338 -166 1400 -173 1456 -188 1466 -6 4 -78 10 -162 13 -83 4 -159 10 -168 12 -14 4 -18 0 -18 -18z"/>
<path d="M1070 3855 c-14 -2 -180 -14 -370 -26 -190 -12 -346 -22 -347 -23 -3 -2 204 -3085 212 -3173 6 -58 8 -63 28 -58 12 2 88 7 168 10 80 4 151 10 157 14 7 4 -2 192 -32 636 -24 347 -42 631 -41 633 1 1 94 9 206 17 112 9 229 20 259 26 338 64 515 258 550 603 9 86 7 159 -10 401 -11 163 -27 330 -36 371 -61 298 -213 478 -456 543 -69 19 -233 33 -288 26z m113 -335 c117 -17 197 -75 241 -174 43 -97 53 -170 77 -568 10 -164 10 -221 0 -274 -16 -87 -50 -153 -102 -198 -78 -67 -170 -88 -441 -102 -131 -7 -138 -6 -138 12 -1 10 -20 303 -44 649 -24 347 -42 631 -41 633 2 3 293 28 355 30 14 1 56 -3 93 -8z"/>
</g>
</svg>