<svg xmlns="http://www.w3.org/2000/svg" xmlns:xlink="http://www.w3.org/1999/xlink" version="1.1" width="1080" height="1080" viewBox="0 0 1080 1080" xml:space="preserve">
<rect x="0" y="0" width="100%" height="100%" fill="transparent"></rect>
<g transform="matrix(1 0 0 1 540 540)" id="e7e606d9-8146-40e6-bb53-14a986390e00"  >
</g>
<g transform="matrix(1 0 0 1 540 540)" id="540e4ae7-d5b8-4163-862c-66f74097be09"  >
<rect style="stroke: none; stroke-width: 1; stroke-dasharray: none; stroke-linecap: butt; stroke-dashoffset: 0; stroke-linejoin: miter; stroke-miterlimit: 4; fill: rgb(255,255,255); fill-rule: nonzero; opacity: 1; visibility: hidden;" vector-effect="non-scaling-stroke"  x="-540" y="-540" rx="0" ry="0" width="1080" height="1080" />
</g>
<g transform="matrix(2.51 0 0 2.51 545.76 552.92)"  >
<g style="" vector-effect="non-scaling-stroke"   >
		<g transform="matrix(0.13 0 0 -0.13 -2.42 -5.4)"  >
<path style="stroke: none; stroke-width: 1; stroke-dasharray: none; stroke-linecap: butt; stroke-dashoffset: 0; stroke-linejoin: miter; stroke-miterlimit: 4; fill: rgb(199,8,8); fill-rule: nonzero; opacity: 1;" vector-effect="non-scaling-stroke"  transform=" translate(-9639.88, -5870.5)" d="M 8920 5871 L 8920 4250 L 9100 4250 L 9280 4250 L 9280 4889 L 9280 5528 L 9543 5532 C 9793 5536 9809 5538 9895 5564 C 10173 5648 10320 5851 10350 6194 C 10363 6339 10363 6686 10350 6822 C 10330 7033 10262 7199 10150 7310 C 10074 7385 9997 7429 9885 7461 C 9808 7483 9786 7484 9363 7488 L 8920 7491 L 8920 5871 z M 9795 7135 C 9862 7110 9931 7039 9958 6969 C 9995 6870 10002 6773 9998 6449 C 9994 6166 9992 6140 9971 6076 C 9939 5979 9871 5911 9774 5879 C 9714 5860 9677 5856 9493 5852 L 9280 5848 L 9280 6505 L 9280 7162 L 9513 7158 C 9707 7154 9753 7151 9795 7135 z" stroke-linecap="round" />
</g>
		<g transform="matrix(0.13 0 0 -0.13 4.6 -83.63)"  >
<path style="stroke: none; stroke-width: 1; stroke-dasharray: none; stroke-linecap: butt; stroke-dashoffset: 0; stroke-linejoin: miter; stroke-miterlimit: 4; fill: rgb(199,8,8); fill-rule: nonzero; opacity: 1;" vector-effect="non-scaling-stroke"  transform=" translate(-9680, -6491.67)" d="M 9472 6728 C 9463 6719 9460 6655 9460 6489 C 9460 6299 9462 6260 9475 6250 C 9488 6239 9524 6257 9695 6355 C 9808 6419 9900 6478 9900 6484 C 9900 6505 9874 6522 9687 6629 C 9479 6748 9488 6744 9472 6728 z" stroke-linecap="round" />
</g>
		<g transform="matrix(0.13 0 0 -0.13 10.75 140.85)"  >
<path style="stroke: none; stroke-width: 1; stroke-dasharray: none; stroke-linecap: butt; stroke-dashoffset: 0; stroke-linejoin: miter; stroke-miterlimit: 4; fill: rgb(199,8,8); fill-rule: nonzero; opacity: 1;" vector-effect="non-scaling-stroke"  transform=" translate(-9725, -4805)" d="M 9550 5135 L 9550 5100 L 9614 5100 C 9663 5100 9679 5096 9684 5084 C 9687 5075 9690 4927 9690 4754 L 9690 4440 L 9730 4440 L 9770 4440 L 9770 4770 L 9770 5100 L 9835 5100 L 9900 5100 L 9900 5135 L 9900 5170 L 9725 5170 L 9550 5170 L 9550 5135 z" stroke-linecap="round" />
</g>
		<g transform="matrix(0.13 0 0 -0.13 69.57 140.79)"  >
<path style="stroke: none; stroke-width: 1; stroke-dasharray: none; stroke-linecap: butt; stroke-dashoffset: 0; stroke-linejoin: miter; stroke-miterlimit: 4; fill: rgb(199,8,8); fill-rule: nonzero; opacity: 1;" vector-effect="non-scaling-stroke"  transform=" translate(-10166.56, -4805.46)" d="M 9975 5148 C 9977 5135 10007 4979 10040 4800 C 10074 4621 10103 4467 10106 4458 C 10110 4443 10123 4440 10170 4440 L 10229 4440 L 10239 4493 C 10271 4650 10360 5138 10360 5153 C 10360 5166 10351 5170 10326 5170 C 10286 5170 10296 5205 10230 4845 C 10201 4691 10177 4564 10175 4562 C 10169 4556 10161 4593 10110 4868 C 10082 5018 10057 5147 10054 5155 C 10050 5165 10034 5170 10009 5170 C 9973 5170 9970 5168 9975 5148 z" stroke-linecap="round" />
</g>
</g>
</g>
<g transform="matrix(NaN NaN NaN NaN 0 0)"  >
<g style=""   >
</g>
</g>
<g transform="matrix(NaN NaN NaN NaN 0 0)"  >
<g style=""   >
</g>
</g>
<g transform="matrix(NaN NaN NaN NaN 0 0)"  >
<g style=""   >
</g>
</g>
<g transform="matrix(NaN NaN NaN NaN 0 0)"  >
<g style=""   >
</g>
</g>
</svg>